<svg width="1512" height="384" viewBox="0 0 1512 384" fill="none" xmlns="http://www.w3.org/2000/svg">
<path d="M187.324 95.0986C125.759 63.0986 0 0 0 0V384H420.591H1366.01H1442.29H1519.11C1519.11 384 1530.11 220.845 1519.11 220.845C1508.11 220.845 1380.66 284.5 1323.43 289.114C1279.22 292.677 1250.99 290.62 1220.24 275.831C1189.48 261.042 1166.15 247.673 1145.52 223.099C1127.02 201.066 1130.47 179.108 1124.99 152.338C1121.09 133.27 1128.74 100.056 1128.74 100.056H1048.6C1048.6 100.056 1054.86 133.988 1048.6 154.591C1036.04 195.89 1013.71 219.042 983.976 247.887C959.149 271.973 925.043 284.845 884 299.268C820.122 321.714 650.836 314.592 650.836 314.592C632.481 314.592 502.174 302.752 443.052 275.831C402.858 257.529 396.479 250.144 364.124 222.648C330.651 194.202 303.548 170.008 267.305 144.225C236.259 122.141 211.707 107.772 187.324 95.0986Z" fill="#D0CECE"/>
</svg>
